<svg xmlns="http://www.w3.org/2000/svg" version="1.1" xmlns:xlink="http://www.w3.org/1999/xlink" xmlns:svgjs="http://svgjs.dev/svgjs" width="1920" height="1080" preserveAspectRatio="none" viewBox="0 0 1920 1080"><g mask="url(&quot;#SvgjsMask1003&quot;)" fill="none"><rect width="1920" height="1080" x="0" y="0" fill="rgba(66, 187, 109, 1)"></rect><path d="M0,727.558C141.766,706.822,287.071,711.18,412.218,641.423C542.306,568.912,650.924,460.896,717.451,327.649C785.368,191.619,802.488,37.995,789.112,-113.457C775.181,-271.187,731.214,-425.061,639.566,-554.187C541.907,-691.781,422.444,-850.582,254.487,-866.704C85.683,-882.907,-23.544,-682.094,-185.992,-633.432C-347.013,-585.198,-561.455,-708.625,-677.901,-587.404C-792.791,-467.803,-701.832,-266.167,-698.062,-100.366C-694.947,36.628,-688.294,166.795,-657.713,300.368C-619.717,466.326,-640.537,681.791,-497.758,774.527C-355.105,867.181,-168.311,752.177,0,727.558" fill="#328e53"></path><path d="M1920 1785.402C2045.792 1753.42 2118.286 1626.676 2235.491 1570.914 2378.158 1503.038 2582.193 1552.238 2676.504 1425.484 2768.937 1301.255 2737.768 1114.967 2682.306 970.397 2631.449 837.832 2491.719 771.499 2388.293 674.222 2296.94 588.3 2230.526 467.58799999999997 2110.185 432.289 1989.855 396.99300000000005 1869.142 464.812 1745.489 485.67100000000005 1602.0520000000001 509.86699999999996 1432.903 466.80499999999995 1325.301 564.69 1217.165 663.06 1228.021 832.835 1205.144 977.219 1181.931 1123.723 1141.7 1273.034 1190.896 1412.97 1242.1860000000001 1558.863 1343.556 1692.321 1481.275 1762.6689999999999 1614.38 1830.6599999999999 1775.143 1822.231 1920 1785.402" fill="#6ecc8f"></path></g><defs><mask id="SvgjsMask1003"><rect width="1920" height="1080" fill="#ffffff"></rect></mask></defs></svg>